<svg width="770" height="378" viewBox="0 0 770 378" fill="none" xmlns="http://www.w3.org/2000/svg">
<g filter="url(#filter0_d_41_6)">
<path d="M42.6 97C37.3333 97 33.3 95.5 30.5 92.5C27.7667 89.5 26.4 85.2667 26.4 79.8V42.2C26.4 36.7333 27.7667 32.5 30.5 29.5C33.3 26.5 37.3333 25 42.6 25C47.8667 25 51.8667 26.5 54.6 29.5C57.4 32.5 58.8 36.7333 58.8 42.2V49.6H48.4V41.5C48.4 37.1667 46.5667 35 42.9 35C39.2333 35 37.4 37.1667 37.4 41.5V80.6C37.4 84.8667 39.2333 87 42.9 87C46.5667 87 48.4 84.8667 48.4 80.6V69.9H58.8V79.8C58.8 85.2667 57.4 89.5 54.6 92.5C51.8667 95.5 47.8667 97 42.6 97ZM81.4766 97C76.0766 97 71.9432 95.4667 69.0766 92.4C66.2099 89.3333 64.7766 85 64.7766 79.4V42.6C64.7766 37 66.2099 32.6667 69.0766 29.6C71.9432 26.5333 76.0766 25 81.4766 25C86.8766 25 91.0099 26.5333 93.8766 29.6C96.7432 32.6667 98.1766 37 98.1766 42.6V79.4C98.1766 85 96.7432 89.3333 93.8766 92.4C91.0099 95.4667 86.8766 97 81.4766 97ZM81.4766 87C85.2766 87 87.1766 84.7 87.1766 80.1V41.9C87.1766 37.3 85.2766 35 81.4766 35C77.6766 35 75.7766 37.3 75.7766 41.9V80.1C75.7766 84.7 77.6766 87 81.4766 87ZM105.616 26H121.316L128.316 76.1H128.516L135.516 26H151.216V96H140.816V43H140.616L132.616 96H123.416L115.416 43H115.216V96H105.616V26ZM191.04 97C185.707 97 181.64 95.5 178.84 92.5C176.04 89.4333 174.64 85.0667 174.64 79.4V42.6C174.64 36.9333 176.04 32.6 178.84 29.6C181.64 26.5333 185.707 25 191.04 25C196.373 25 200.44 26.5333 203.24 29.6C206.04 32.6 207.44 36.9333 207.44 42.6V48.6H197.04V41.9C197.04 37.3 195.14 35 191.34 35C187.54 35 185.64 37.3 185.64 41.9V80.2C185.64 84.7333 187.54 87 191.34 87C195.14 87 197.04 84.7333 197.04 80.2V66.5H191.54V56.5H207.44V79.4C207.44 85.0667 206.04 89.4333 203.24 92.5C200.44 95.5 196.373 97 191.04 97ZM214.502 26H230.802C236.469 26 240.602 27.3333 243.202 30C245.802 32.6 247.102 36.6333 247.102 42.1V46.4C247.102 53.6667 244.702 58.2667 239.902 60.2V60.4C242.569 61.2 244.436 62.8333 245.502 65.3C246.636 67.7667 247.202 71.0667 247.202 75.2V87.5C247.202 89.5 247.269 91.1333 247.402 92.4C247.536 93.6 247.869 94.8 248.402 96H237.202C236.802 94.8667 236.536 93.8 236.402 92.8C236.269 91.8 236.202 90 236.202 87.4V74.6C236.202 71.4 235.669 69.1667 234.602 67.9C233.602 66.6333 231.836 66 229.302 66H225.502V96H214.502V26ZM229.502 56C231.702 56 233.336 55.4333 234.402 54.3C235.536 53.1667 236.102 51.2667 236.102 48.6V43.2C236.102 40.6667 235.636 38.8333 234.702 37.7C233.836 36.5667 232.436 36 230.502 36H225.502V56H229.502ZM263.334 26H278.234L289.634 96H278.634L276.634 82.1V82.3H264.134L262.134 96H251.934L263.334 26ZM275.334 72.8L270.434 38.2H270.234L265.434 72.8H275.334ZM294.971 26H308.771L319.471 67.9H319.671V26H329.471V96H318.171L304.971 44.9H304.771V96H294.971V26ZM337.647 26H354.447C359.914 26 364.014 27.4667 366.747 30.4C369.48 33.3333 370.847 37.6333 370.847 43.3V78.7C370.847 84.3667 369.48 88.6667 366.747 91.6C364.014 94.5333 359.914 96 354.447 96H337.647V26ZM354.247 86C356.047 86 357.414 85.4667 358.347 84.4C359.347 83.3333 359.847 81.6 359.847 79.2V42.8C359.847 40.4 359.347 38.6667 358.347 37.6C357.414 36.5333 356.047 36 354.247 36H348.647V86H354.247ZM378.272 26H408.272V36H389.272V54.5H404.372V64.5H389.272V86H408.272V96H378.272V26ZM429.095 97C423.762 97 419.729 95.5 416.995 92.5C414.262 89.4333 412.895 85.0667 412.895 79.4V75.4H423.295V80.2C423.295 84.7333 425.195 87 428.995 87C430.862 87 432.262 86.4667 433.195 85.4C434.195 84.2667 434.695 82.4667 434.695 80C434.695 77.0667 434.029 74.5 432.695 72.3C431.362 70.0333 428.895 67.3333 425.295 64.2C420.762 60.2 417.595 56.6 415.795 53.4C413.995 50.1333 413.095 46.4667 413.095 42.4C413.095 36.8667 414.495 32.6 417.295 29.6C420.095 26.5333 424.162 25 429.495 25C434.762 25 438.729 26.5333 441.395 29.6C444.129 32.6 445.495 36.9333 445.495 42.6V45.5H435.095V41.9C435.095 39.5 434.629 37.7667 433.695 36.7C432.762 35.5667 431.395 35 429.595 35C425.929 35 424.095 37.2333 424.095 41.7C424.095 44.2333 424.762 46.6 426.095 48.8C427.495 51 429.995 53.6667 433.595 56.8C438.195 60.8 441.362 64.4333 443.095 67.7C444.829 70.9667 445.695 74.8 445.695 79.2C445.695 84.9333 444.262 89.3333 441.395 92.4C438.595 95.4667 434.495 97 429.095 97ZM468.018 26H484.218C489.685 26 493.785 27.4667 496.518 30.4C499.251 33.3333 500.618 37.6333 500.618 43.3V50.2C500.618 55.8667 499.251 60.1667 496.518 63.1C493.785 66.0333 489.685 67.5 484.218 67.5H479.018V96H468.018V26ZM484.218 57.5C486.018 57.5 487.351 57 488.218 56C489.151 55 489.618 53.3 489.618 50.9V42.6C489.618 40.2 489.151 38.5 488.218 37.5C487.351 36.5 486.018 36 484.218 36H479.018V57.5H484.218ZM522.492 97C517.092 97 512.959 95.4667 510.092 92.4C507.226 89.3333 505.792 85 505.792 79.4V42.6C505.792 37 507.226 32.6667 510.092 29.6C512.959 26.5333 517.092 25 522.492 25C527.892 25 532.026 26.5333 534.892 29.6C537.759 32.6667 539.192 37 539.192 42.6V79.4C539.192 85 537.759 89.3333 534.892 92.4C532.026 95.4667 527.892 97 522.492 97ZM522.492 87C526.292 87 528.192 84.7 528.192 80.1V41.9C528.192 37.3 526.292 35 522.492 35C518.692 35 516.792 37.3 516.792 41.9V80.1C516.792 84.7 518.692 87 522.492 87ZM546.631 26H563.431C568.898 26 572.998 27.4667 575.731 30.4C578.465 33.3333 579.831 37.6333 579.831 43.3V78.7C579.831 84.3667 578.465 88.6667 575.731 91.6C572.998 94.5333 568.898 96 563.431 96H546.631V26ZM563.231 86C565.031 86 566.398 85.4667 567.331 84.4C568.331 83.3333 568.831 81.6 568.831 79.2V42.8C568.831 40.4 568.331 38.6667 567.331 37.6C566.398 36.5333 565.031 36 563.231 36H557.631V86H563.231ZM587.256 26H617.256V36H598.256V54.5H613.356V64.5H598.256V86H617.256V96H587.256V26ZM623.584 26H639.884C645.551 26 649.684 27.3333 652.284 30C654.884 32.6 656.184 36.6333 656.184 42.1V46.4C656.184 53.6667 653.784 58.2667 648.984 60.2V60.4C651.651 61.2 653.518 62.8333 654.584 65.3C655.718 67.7667 656.284 71.0667 656.284 75.2V87.5C656.284 89.5 656.351 91.1333 656.484 92.4C656.618 93.6 656.951 94.8 657.484 96H646.284C645.884 94.8667 645.618 93.8 645.484 92.8C645.351 91.8 645.284 90 645.284 87.4V74.6C645.284 71.4 644.751 69.1667 643.684 67.9C642.684 66.6333 640.918 66 638.384 66H634.584V96H623.584V26ZM638.584 56C640.784 56 642.418 55.4333 643.484 54.3C644.618 53.1667 645.184 51.2667 645.184 48.6V43.2C645.184 40.6667 644.718 38.8333 643.784 37.7C642.918 36.5667 641.518 36 639.584 36H634.584V56H638.584ZM663.916 26H693.916V36H674.916V54.5H690.016V64.5H674.916V86H693.916V96H663.916V26ZM714.74 97C709.407 97 705.373 95.5 702.64 92.5C699.907 89.4333 698.54 85.0667 698.54 79.4V75.4H708.94V80.2C708.94 84.7333 710.84 87 714.64 87C716.507 87 717.907 86.4667 718.84 85.4C719.84 84.2667 720.34 82.4667 720.34 80C720.34 77.0667 719.673 74.5 718.34 72.3C717.007 70.0333 714.54 67.3333 710.94 64.2C706.407 60.2 703.24 56.6 701.44 53.4C699.64 50.1333 698.74 46.4667 698.74 42.4C698.74 36.8667 700.14 32.6 702.94 29.6C705.74 26.5333 709.807 25 715.14 25C720.407 25 724.373 26.5333 727.04 29.6C729.773 32.6 731.14 36.9333 731.14 42.6V45.5H720.74V41.9C720.74 39.5 720.273 37.7667 719.34 36.7C718.407 35.5667 717.04 35 715.24 35C711.573 35 709.74 37.2333 709.74 41.7C709.74 44.2333 710.407 46.6 711.74 48.8C713.14 51 715.64 53.6667 719.24 56.8C723.84 60.8 727.007 64.4333 728.74 67.7C730.473 70.9667 731.34 74.8 731.34 79.2C731.34 84.9333 729.907 89.3333 727.04 92.4C724.24 95.4667 720.14 97 714.74 97Z" fill="white"/>
</g>
<g filter="url(#filter1_d_41_6)">
<path d="M25.04 122.263H43.91L56.15 214.573H56.49L68.73 122.263H85.9L67.88 241.263H43.06L25.04 122.263ZM94.8821 122.263H145.882V139.263H113.582V170.713H139.252V187.713H113.582V224.263H145.882V241.263H94.8821V122.263ZM156.64 122.263H183.33L195.23 207.433H195.57L207.47 122.263H234.16V241.263H216.48V151.163H216.14L202.54 241.263H186.9L173.3 151.163H172.96V241.263H156.64V122.263ZM301.861 242.963C292.794 242.963 285.881 240.413 281.121 235.313C276.361 230.099 273.981 222.676 273.981 213.043V150.483C273.981 140.849 276.361 133.483 281.121 128.383C285.881 123.169 292.794 120.563 301.861 120.563C310.928 120.563 317.841 123.169 322.601 128.383C327.361 133.483 329.741 140.849 329.741 150.483V160.683H312.061V149.293C312.061 141.473 308.831 137.563 302.371 137.563C295.911 137.563 292.681 141.473 292.681 149.293V214.403C292.681 222.109 295.911 225.963 302.371 225.963C308.831 225.963 312.061 222.109 312.061 214.403V191.113H302.711V174.113H329.741V213.043C329.741 222.676 327.361 230.099 322.601 235.313C317.841 240.413 310.928 242.963 301.861 242.963ZM341.747 122.263H369.457C379.091 122.263 386.117 124.529 390.537 129.063C394.957 133.483 397.167 140.339 397.167 149.633V156.943C397.167 169.296 393.087 177.116 384.927 180.403V180.743C389.461 182.103 392.634 184.879 394.447 189.073C396.374 193.266 397.337 198.876 397.337 205.903V226.813C397.337 230.213 397.451 232.989 397.677 235.143C397.904 237.183 398.471 239.223 399.377 241.263H380.337C379.657 239.336 379.204 237.523 378.977 235.823C378.751 234.123 378.637 231.063 378.637 226.643V204.883C378.637 199.443 377.731 195.646 375.917 193.493C374.217 191.339 371.214 190.263 366.907 190.263H360.447V241.263H341.747V122.263ZM367.247 173.263C370.987 173.263 373.764 172.299 375.577 170.373C377.504 168.446 378.467 165.216 378.467 160.683V151.503C378.467 147.196 377.674 144.079 376.087 142.153C374.614 140.226 372.234 139.263 368.947 139.263H360.447V173.263H367.247ZM424.762 122.263H450.092L469.472 241.263H450.772L447.372 217.633V217.973H426.122L422.722 241.263H405.382L424.762 122.263ZM445.162 201.823L436.832 143.003H436.492L428.332 201.823H445.162ZM478.544 122.263H502.004L520.194 193.493H520.534V122.263H537.194V241.263H517.984L495.544 154.393H495.204V241.263H478.544V122.263ZM551.093 122.263H579.653C588.946 122.263 595.916 124.756 600.563 129.743C605.21 134.729 607.533 142.039 607.533 151.673V211.853C607.533 221.486 605.21 228.796 600.563 233.783C595.916 238.769 588.946 241.263 579.653 241.263H551.093V122.263ZM579.313 224.263C582.373 224.263 584.696 223.356 586.283 221.543C587.983 219.729 588.833 216.783 588.833 212.703V150.823C588.833 146.743 587.983 143.796 586.283 141.983C584.696 140.169 582.373 139.263 579.313 139.263H569.793V224.263H579.313ZM620.156 122.263H671.156V139.263H638.856V170.713H664.526V187.713H638.856V224.263H671.156V241.263H620.156V122.263ZM706.555 242.963C697.489 242.963 690.632 240.413 685.985 235.313C681.339 230.099 679.015 222.676 679.015 213.043V206.243H696.695V214.403C696.695 222.109 699.925 225.963 706.385 225.963C709.559 225.963 711.939 225.056 713.525 223.243C715.225 221.316 716.075 218.256 716.075 214.063C716.075 209.076 714.942 204.713 712.675 200.973C710.409 197.119 706.215 192.529 700.095 187.203C692.389 180.403 687.005 174.283 683.945 168.843C680.885 163.289 679.355 157.056 679.355 150.143C679.355 140.736 681.735 133.483 686.495 128.383C691.255 123.169 698.169 120.563 707.235 120.563C716.189 120.563 722.932 123.169 727.465 128.383C732.112 133.483 734.435 140.849 734.435 150.483V155.413H716.755V149.293C716.755 145.213 715.962 142.266 714.375 140.453C712.789 138.526 710.465 137.563 707.405 137.563C701.172 137.563 698.055 141.359 698.055 148.953C698.055 153.259 699.189 157.283 701.455 161.023C703.835 164.763 708.085 169.296 714.205 174.623C722.025 181.423 727.409 187.599 730.355 193.153C733.302 198.706 734.775 205.223 734.775 212.703C734.775 222.449 732.339 229.929 727.465 235.143C722.705 240.356 715.735 242.963 706.555 242.963Z" fill="#C91B1C"/>
</g>
<g filter="url(#filter2_d_41_6)">
<path d="M27.715 260.5H46.46C52.9767 260.5 57.73 262.033 60.72 265.1C63.71 268.09 65.205 272.728 65.205 279.015V283.96C65.205 292.317 62.445 297.607 56.925 299.83V300.06C59.9917 300.98 62.1383 302.858 63.365 305.695C64.6683 308.532 65.32 312.327 65.32 317.08V331.225C65.32 333.525 65.3967 335.403 65.55 336.86C65.7033 338.24 66.0867 339.62 66.7 341H53.82C53.36 339.697 53.0533 338.47 52.9 337.32C52.7467 336.17 52.67 334.1 52.67 331.11V316.39C52.67 312.71 52.0567 310.142 50.83 308.685C49.68 307.228 47.6483 306.5 44.735 306.5H40.365V341H27.715V260.5ZM44.965 295C47.495 295 49.3733 294.348 50.6 293.045C51.9033 291.742 52.555 289.557 52.555 286.49V280.28C52.555 277.367 52.0183 275.258 50.945 273.955C49.9483 272.652 48.3383 272 46.115 272H40.365V295H44.965ZM74.0968 260.5H108.597V272H86.7468V293.275H104.112V304.775H86.7468V329.5H108.597V341H74.0968V260.5ZM132.544 342.15C126.41 342.15 121.772 340.425 118.629 336.975C115.485 333.448 113.914 328.427 113.914 321.91V317.31H125.874V322.83C125.874 328.043 128.059 330.65 132.429 330.65C134.575 330.65 136.185 330.037 137.259 328.81C138.409 327.507 138.984 325.437 138.984 322.6C138.984 319.227 138.217 316.275 136.684 313.745C135.15 311.138 132.314 308.033 128.174 304.43C122.96 299.83 119.319 295.69 117.249 292.01C115.179 288.253 114.144 284.037 114.144 279.36C114.144 272.997 115.754 268.09 118.974 264.64C122.194 261.113 126.87 259.35 133.004 259.35C139.06 259.35 143.622 261.113 146.689 264.64C149.832 268.09 151.404 273.073 151.404 279.59V282.925H139.444V278.785C139.444 276.025 138.907 274.032 137.834 272.805C136.76 271.502 135.189 270.85 133.119 270.85C128.902 270.85 126.794 273.418 126.794 278.555C126.794 281.468 127.56 284.19 129.094 286.72C130.704 289.25 133.579 292.317 137.719 295.92C143.009 300.52 146.65 304.698 148.644 308.455C150.637 312.212 151.634 316.62 151.634 321.68C151.634 328.273 149.985 333.333 146.689 336.86C143.469 340.387 138.754 342.15 132.544 342.15ZM158.887 260.5H177.517C183.804 260.5 188.519 262.187 191.662 265.56C194.805 268.933 196.377 273.878 196.377 280.395V288.33C196.377 294.847 194.805 299.792 191.662 303.165C188.519 306.538 183.804 308.225 177.517 308.225H171.537V341H158.887V260.5ZM177.517 296.725C179.587 296.725 181.12 296.15 182.117 295C183.19 293.85 183.727 291.895 183.727 289.135V279.59C183.727 276.83 183.19 274.875 182.117 273.725C181.12 272.575 179.587 272 177.517 272H171.537V296.725H177.517ZM221.532 342.15C215.322 342.15 210.569 340.387 207.272 336.86C203.976 333.333 202.327 328.35 202.327 321.91V279.59C202.327 273.15 203.976 268.167 207.272 264.64C210.569 261.113 215.322 259.35 221.532 259.35C227.742 259.35 232.496 261.113 235.792 264.64C239.089 268.167 240.737 273.15 240.737 279.59V321.91C240.737 328.35 239.089 333.333 235.792 336.86C232.496 340.387 227.742 342.15 221.532 342.15ZM221.532 330.65C225.902 330.65 228.087 328.005 228.087 322.715V278.785C228.087 273.495 225.902 270.85 221.532 270.85C217.162 270.85 214.977 273.495 214.977 278.785V322.715C214.977 328.005 217.162 330.65 221.532 330.65ZM249.292 260.5H265.162L277.467 308.685H277.697V260.5H288.967V341H275.972L260.792 282.235H260.562V341H249.292V260.5ZM314.814 342.15C308.681 342.15 304.043 340.425 300.899 336.975C297.756 333.448 296.184 328.427 296.184 321.91V317.31H308.144V322.83C308.144 328.043 310.329 330.65 314.699 330.65C316.846 330.65 318.456 330.037 319.529 328.81C320.679 327.507 321.254 325.437 321.254 322.6C321.254 319.227 320.488 316.275 318.954 313.745C317.421 311.138 314.584 308.033 310.444 304.43C305.231 299.83 301.589 295.69 299.519 292.01C297.449 288.253 296.414 284.037 296.414 279.36C296.414 272.997 298.024 268.09 301.244 264.64C304.464 261.113 309.141 259.35 315.274 259.35C321.331 259.35 325.893 261.113 328.959 264.64C332.103 268.09 333.674 273.073 333.674 279.59V282.925H321.714V278.785C321.714 276.025 321.178 274.032 320.104 272.805C319.031 271.502 317.459 270.85 315.389 270.85C311.173 270.85 309.064 273.418 309.064 278.555C309.064 281.468 309.831 284.19 311.364 286.72C312.974 289.25 315.849 292.317 319.989 295.92C325.279 300.52 328.921 304.698 330.914 308.455C332.908 312.212 333.904 316.62 333.904 321.68C333.904 328.273 332.256 333.333 328.959 336.86C325.739 340.387 321.024 342.15 314.814 342.15ZM350.595 260.5H367.73L380.84 341H368.19L365.89 325.015V325.245H351.515L349.215 341H337.485L350.595 260.5ZM364.395 314.32L358.76 274.53H358.53L353.01 314.32H364.395ZM386.978 260.5H406.068C412.584 260.5 417.338 262.033 420.328 265.1C423.318 268.09 424.813 272.728 424.813 279.015V282.235C424.813 286.375 424.123 289.748 422.743 292.355C421.439 294.962 419.408 296.84 416.648 297.99V298.22C422.934 300.367 426.078 305.963 426.078 315.01V321.91C426.078 328.12 424.429 332.873 421.133 336.17C417.913 339.39 413.159 341 406.873 341H386.978V260.5ZM404.573 293.275C407.103 293.275 408.981 292.623 410.208 291.32C411.511 290.017 412.163 287.832 412.163 284.765V280.28C412.163 277.367 411.626 275.258 410.553 273.955C409.556 272.652 407.946 272 405.723 272H399.628V293.275H404.573ZM406.873 329.5C409.096 329.5 410.744 328.925 411.818 327.775C412.891 326.548 413.428 324.478 413.428 321.565V314.55C413.428 310.87 412.776 308.34 411.473 306.96C410.246 305.503 408.176 304.775 405.263 304.775H399.628V329.5H406.873ZM433.472 260.5H446.122V341H433.472V260.5ZM455.596 260.5H468.246V329.5H489.061V341H455.596V260.5ZM495.127 260.5H507.777V341H495.127V260.5ZM517.251 260.5H536.571C542.858 260.5 547.573 262.187 550.716 265.56C553.859 268.933 555.431 273.878 555.431 280.395V321.105C555.431 327.622 553.859 332.567 550.716 335.94C547.573 339.313 542.858 341 536.571 341H517.251V260.5ZM536.341 329.5C538.411 329.5 539.983 328.887 541.056 327.66C542.206 326.433 542.781 324.44 542.781 321.68V279.82C542.781 277.06 542.206 275.067 541.056 273.84C539.983 272.613 538.411 272 536.341 272H529.901V329.5H536.341ZM573.52 260.5H590.655L603.765 341H591.115L588.815 325.015V325.245H574.44L572.14 341H560.41L573.52 260.5ZM587.32 314.32L581.685 274.53H581.455L575.935 314.32H587.32ZM609.903 260.5H629.223C635.509 260.5 640.224 262.187 643.368 265.56C646.511 268.933 648.083 273.878 648.083 280.395V321.105C648.083 327.622 646.511 332.567 643.368 335.94C640.224 339.313 635.509 341 629.223 341H609.903V260.5ZM628.993 329.5C631.063 329.5 632.634 328.887 633.708 327.66C634.858 326.433 635.433 324.44 635.433 321.68V279.82C635.433 277.06 634.858 275.067 633.708 273.84C632.634 272.613 631.063 272 628.993 272H622.553V329.5H628.993ZM656.621 260.5H691.121V272H669.271V293.275H686.636V304.775H669.271V329.5H691.121V341H656.621V260.5ZM715.068 342.15C708.935 342.15 704.297 340.425 701.153 336.975C698.01 333.448 696.438 328.427 696.438 321.91V317.31H708.398V322.83C708.398 328.043 710.583 330.65 714.953 330.65C717.1 330.65 718.71 330.037 719.783 328.81C720.933 327.507 721.508 325.437 721.508 322.6C721.508 319.227 720.742 316.275 719.208 313.745C717.675 311.138 714.838 308.033 710.698 304.43C705.485 299.83 701.843 295.69 699.773 292.01C697.703 288.253 696.668 284.037 696.668 279.36C696.668 272.997 698.278 268.09 701.498 264.64C704.718 261.113 709.395 259.35 715.528 259.35C721.585 259.35 726.147 261.113 729.213 264.64C732.357 268.09 733.928 273.073 733.928 279.59V282.925H721.968V278.785C721.968 276.025 721.432 274.032 720.358 272.805C719.285 271.502 717.713 270.85 715.643 270.85C711.427 270.85 709.318 273.418 709.318 278.555C709.318 281.468 710.085 284.19 711.618 286.72C713.228 289.25 716.103 292.317 720.243 295.92C725.533 300.52 729.175 304.698 731.168 308.455C733.162 312.212 734.158 316.62 734.158 321.68C734.158 328.273 732.51 333.333 729.213 336.86C725.993 340.387 721.278 342.15 715.068 342.15Z" fill="white"/>
</g>
<defs>
<filter id="filter0_d_41_6" x="1.40002" y="0" width="764.94" height="132" filterUnits="userSpaceOnUse" color-interpolation-filters="sRGB">
<feFlood flood-opacity="0" result="BackgroundImageFix"/>
<feColorMatrix in="SourceAlpha" type="matrix" values="0 0 0 0 0 0 0 0 0 0 0 0 0 0 0 0 0 0 127 0" result="hardAlpha"/>
<feOffset dx="5" dy="5"/>
<feGaussianBlur stdDeviation="15"/>
<feComposite in2="hardAlpha" operator="out"/>
<feColorMatrix type="matrix" values="0 0 0 0 0 0 0 0 0 0 0 0 0 0 0 0 0 0 0.5 0"/>
<feBlend mode="normal" in2="BackgroundImageFix" result="effect1_dropShadow_41_6"/>
<feBlend mode="normal" in="SourceGraphic" in2="effect1_dropShadow_41_6" result="shape"/>
</filter>
<filter id="filter1_d_41_6" x="0.039978" y="95.5626" width="769.735" height="182.4" filterUnits="userSpaceOnUse" color-interpolation-filters="sRGB">
<feFlood flood-opacity="0" result="BackgroundImageFix"/>
<feColorMatrix in="SourceAlpha" type="matrix" values="0 0 0 0 0 0 0 0 0 0 0 0 0 0 0 0 0 0 127 0" result="hardAlpha"/>
<feOffset dx="5" dy="5"/>
<feGaussianBlur stdDeviation="15"/>
<feComposite in2="hardAlpha" operator="out"/>
<feColorMatrix type="matrix" values="0 0 0 0 0 0 0 0 0 0 0 0 0 0 0 0 0 0 0.5 0"/>
<feBlend mode="normal" in2="BackgroundImageFix" result="effect1_dropShadow_41_6"/>
<feBlend mode="normal" in="SourceGraphic" in2="effect1_dropShadow_41_6" result="shape"/>
</filter>
<filter id="filter2_d_41_6" x="2.71503" y="234.35" width="766.443" height="142.8" filterUnits="userSpaceOnUse" color-interpolation-filters="sRGB">
<feFlood flood-opacity="0" result="BackgroundImageFix"/>
<feColorMatrix in="SourceAlpha" type="matrix" values="0 0 0 0 0 0 0 0 0 0 0 0 0 0 0 0 0 0 127 0" result="hardAlpha"/>
<feOffset dx="5" dy="5"/>
<feGaussianBlur stdDeviation="15"/>
<feComposite in2="hardAlpha" operator="out"/>
<feColorMatrix type="matrix" values="0 0 0 0 0 0 0 0 0 0 0 0 0 0 0 0 0 0 0.5 0"/>
<feBlend mode="normal" in2="BackgroundImageFix" result="effect1_dropShadow_41_6"/>
<feBlend mode="normal" in="SourceGraphic" in2="effect1_dropShadow_41_6" result="shape"/>
</filter>
</defs>
</svg>
